{
	"asset":{
		"generator":"Khronos glTF Blender I/O v3.6.27",
		"version":"2.0"
	},
	"scene":0,
	"scenes":[
		{
			"name":"Scene",
			"nodes":[
				0,
				1,
				2
			]
		}
	],
	"nodes":[
		{
			"mesh":0,
			"name":"Cylinder.003",
			"rotation":[
				0.18015898764133453,
				-0.18015894293785095,
				-0.6837709546089172,
				0.683771014213562
			],
			"scale":[
				0.05010782927274704,
				0.010804164223372936,
				0.05010783299803734
			],
			"translation":[
				1.1243295669555664,
				1.373828411102295,
				-3.1476101875305176
			]
		},
		{
			"mesh":1,
			"name":"Plane.001",
			"rotation":[
				0,
				0,
				-0.7071068286895752,
				0.7071068286895752
			],
			"scale":[
				1.493467926979065,
				1,
				3.030457019805908
			],
			"translation":[
				-3.9895474910736084,
				2.28806209564209,
				0.013055801391601562
			]
		},
		{
			"mesh":2,
			"name":"Cylinder.002",
			"rotation":[
				0.6998764276504517,
				-0.6998764872550964,
				-0.10086105763912201,
				0.10086105763912201
			],
			"scale":[
				-0.05751243606209755,
				-0.002945584012195468,
				-0.05751243606209755
			],
			"translation":[
				1.1621109247207642,
				1.8388384580612183,
				3.621060371398926
			]
		}
	],
	"materials":[
		{
			"doubleSided":true,
			"name":"Material.006",
			"pbrMetallicRoughness":{
				"baseColorFactor":[
					0.800000011920929,
					0.800000011920929,
					0.800000011920929,
					1
				],
				"metallicFactor":0,
				"roughnessFactor":0.5
			}
		},
		{
			"doubleSided":true,
			"name":"Material.005",
			"pbrMetallicRoughness":{
				"baseColorFactor":[
					0.08196644484996796,
					0.12049926072359085,
					0.15743419528007507,
					1
				],
				"metallicFactor":0,
				"roughnessFactor":0.5
			}
		},
		{
			"doubleSided":true,
			"name":"Material.004",
			"pbrMetallicRoughness":{
				"baseColorFactor":[
					0.005604584235697985,
					0.005604584235697985,
					0.005604584235697985,
					1
				],
				"metallicFactor":0,
				"roughnessFactor":0.5
			}
		},
		{
			"doubleSided":true,
			"name":"Material.003",
			"pbrMetallicRoughness":{
				"baseColorTexture":{
					"index":0
				},
				"metallicFactor":0,
				"roughnessFactor":0.5
			}
		},
		{
			"doubleSided":true,
			"name":"Material.007",
			"pbrMetallicRoughness":{
				"baseColorTexture":{
					"index":1
				},
				"metallicFactor":0,
				"roughnessFactor":0.5
			}
		},
		{
			"doubleSided":true,
			"name":"Material.008",
			"pbrMetallicRoughness":{
				"baseColorFactor":[
					0.2667607069015503,
					0.2667607069015503,
					0.2667607069015503,
					1
				],
				"metallicFactor":0,
				"roughnessFactor":0.5
			}
		},
		{
			"doubleSided":true,
			"name":"Material.009",
			"pbrMetallicRoughness":{
				"baseColorTexture":{
					"index":2
				},
				"metallicFactor":0,
				"roughnessFactor":0.5
			}
		}
	],
	"meshes":[
		{
			"name":"Cylinder.003",
			"primitives":[
				{
					"attributes":{
						"POSITION":0,
						"NORMAL":1,
						"TEXCOORD_0":2
					},
					"indices":3,
					"material":0
				},
				{
					"attributes":{
						"POSITION":4,
						"NORMAL":5,
						"TEXCOORD_0":6
					},
					"indices":3,
					"material":1
				},
				{
					"attributes":{
						"POSITION":7,
						"NORMAL":8,
						"TEXCOORD_0":9
					},
					"indices":10,
					"material":2
				},
				{
					"attributes":{
						"POSITION":11,
						"NORMAL":12,
						"TEXCOORD_0":13
					},
					"indices":14,
					"material":3
				}
			]
		},
		{
			"name":"Plane.001",
			"primitives":[
				{
					"attributes":{
						"POSITION":15,
						"NORMAL":16,
						"TEXCOORD_0":17
					},
					"indices":18,
					"material":4
				},
				{
					"attributes":{
						"POSITION":19,
						"NORMAL":20,
						"TEXCOORD_0":21
					},
					"indices":22,
					"material":2
				}
			]
		},
		{
			"name":"Cylinder.005",
			"primitives":[
				{
					"attributes":{
						"POSITION":23,
						"NORMAL":24,
						"TEXCOORD_0":25
					},
					"indices":26,
					"material":5
				},
				{
					"attributes":{
						"POSITION":27,
						"NORMAL":28,
						"TEXCOORD_0":29
					},
					"indices":30,
					"material":2
				},
				{
					"attributes":{
						"POSITION":31,
						"NORMAL":32,
						"TEXCOORD_0":33
					},
					"indices":34,
					"material":6
				}
			]
		}
	],
	"textures":[
		{
			"sampler":0,
			"source":0
		},
		{
			"sampler":0,
			"source":1
		},
		{
			"sampler":0,
			"source":2
		}
	],
	"images":[
		{
			"mimeType":"image/jpeg",
			"name":"FireShot Capture 172 - \u0413\u043b\u0430\u0432\u043d\u0430\u044f - localhost-min",
			"uri":"FireShot%20Capture%20172%20-%20%D0%93%D0%BB%D0%B0%D0%B2%D0%BD%D0%B0%D1%8F%20-%20localhost-min.jpg"
		},
		{
			"mimeType":"image/jpeg",
			"name":"444",
			"uri":"444.jpg"
		},
		{
			"mimeType":"image/jpeg",
			"name":"677888",
			"uri":"677888.jpg"
		}
	],
	"accessors":[
		{
			"bufferView":0,
			"componentType":5126,
			"count":390,
			"max":[
				1,
				1,
				1
			],
			"min":[
				-4.8123016357421875,
				-1,
				-4.673566818237305
			],
			"type":"VEC3"
		},
		{
			"bufferView":1,
			"componentType":5126,
			"count":390,
			"type":"VEC3"
		},
		{
			"bufferView":2,
			"componentType":5126,
			"count":390,
			"type":"VEC2"
		},
		{
			"bufferView":3,
			"componentType":5123,
			"count":1116,
			"type":"SCALAR"
		},
		{
			"bufferView":4,
			"componentType":5126,
			"count":390,
			"max":[
				1.866959571838379,
				3.529892921447754,
				1.866959571838379
			],
			"min":[
				-5.679261207580566,
				-0.2040262222290039,
				-5.540526390075684
			],
			"type":"VEC3"
		},
		{
			"bufferView":5,
			"componentType":5126,
			"count":390,
			"type":"VEC3"
		},
		{
			"bufferView":6,
			"componentType":5126,
			"count":390,
			"type":"VEC2"
		},
		{
			"bufferView":7,
			"componentType":5126,
			"count":3794,
			"max":[
				44.895050048828125,
				10.123966217041016,
				16.05003547668457
			],
			"min":[
				-11.61994743347168,
				-2.548884391784668,
				-8.379051208496094
			],
			"type":"VEC3"
		},
		{
			"bufferView":8,
			"componentType":5126,
			"count":3794,
			"type":"VEC3"
		},
		{
			"bufferView":9,
			"componentType":5126,
			"count":3794,
			"type":"VEC2"
		},
		{
			"bufferView":10,
			"componentType":5123,
			"count":13530,
			"type":"SCALAR"
		},
		{
			"bufferView":11,
			"componentType":5126,
			"count":240,
			"max":[
				43.91334533691406,
				9.9423828125,
				14.168103218078613
			],
			"min":[
				-7.228771209716797,
				9.9423828125,
				-6.288743019104004
			],
			"type":"VEC3"
		},
		{
			"bufferView":12,
			"componentType":5126,
			"count":240,
			"type":"VEC3"
		},
		{
			"bufferView":13,
			"componentType":5126,
			"count":240,
			"type":"VEC2"
		},
		{
			"bufferView":14,
			"componentType":5123,
			"count":1260,
			"type":"SCALAR"
		},
		{
			"bufferView":15,
			"componentType":5126,
			"count":225,
			"max":[
				0.8749998807907104,
				4.336184501647949,
				0.875
			],
			"min":[
				-0.8750001192092896,
				4.336184501647949,
				-0.875
			],
			"type":"VEC3"
		},
		{
			"bufferView":16,
			"componentType":5126,
			"count":225,
			"type":"VEC3"
		},
		{
			"bufferView":17,
			"componentType":5126,
			"count":225,
			"type":"VEC2"
		},
		{
			"bufferView":18,
			"componentType":5123,
			"count":1176,
			"type":"SCALAR"
		},
		{
			"bufferView":19,
			"componentType":5126,
			"count":2486,
			"max":[
				1.650457501411438,
				5.081551551818848,
				1
			],
			"min":[
				-0.9824846982955933,
				3.0815515518188477,
				-1
			],
			"type":"VEC3"
		},
		{
			"bufferView":20,
			"componentType":5126,
			"count":2486,
			"type":"VEC3"
		},
		{
			"bufferView":21,
			"componentType":5126,
			"count":2486,
			"type":"VEC2"
		},
		{
			"bufferView":22,
			"componentType":5123,
			"count":9372,
			"type":"SCALAR"
		},
		{
			"bufferView":23,
			"componentType":5126,
			"count":384,
			"max":[
				4.223270416259766,
				1.0000039339065552,
				1
			],
			"min":[
				-1,
				-1,
				-1
			],
			"type":"VEC3"
		},
		{
			"bufferView":24,
			"componentType":5126,
			"count":384,
			"type":"VEC3"
		},
		{
			"bufferView":25,
			"componentType":5126,
			"count":384,
			"type":"VEC2"
		},
		{
			"bufferView":26,
			"componentType":5123,
			"count":744,
			"type":"SCALAR"
		},
		{
			"bufferView":27,
			"componentType":5126,
			"count":2577,
			"max":[
				11.363527297973633,
				53.324405670166016,
				10.636101722717285
			],
			"min":[
				-46.107948303222656,
				3.349628448486328,
				-24.314983367919922
			],
			"type":"VEC3"
		},
		{
			"bufferView":28,
			"componentType":5126,
			"count":2577,
			"type":"VEC3"
		},
		{
			"bufferView":29,
			"componentType":5126,
			"count":2577,
			"type":"VEC2"
		},
		{
			"bufferView":30,
			"componentType":5123,
			"count":10278,
			"type":"SCALAR"
		},
		{
			"bufferView":31,
			"componentType":5126,
			"count":961,
			"max":[
				9.158100128173828,
				40.0289306640625,
				9.294880867004395
			],
			"min":[
				-43.90252685546875,
				40.0289306640625,
				-22.97376251220703
			],
			"type":"VEC3"
		},
		{
			"bufferView":32,
			"componentType":5126,
			"count":961,
			"type":"VEC3"
		},
		{
			"bufferView":33,
			"componentType":5126,
			"count":961,
			"type":"VEC2"
		},
		{
			"bufferView":34,
			"componentType":5123,
			"count":5400,
			"type":"SCALAR"
		}
	],
	"bufferViews":[
		{
			"buffer":0,
			"byteLength":4680,
			"byteOffset":0,
			"target":34962
		},
		{
			"buffer":0,
			"byteLength":4680,
			"byteOffset":4680,
			"target":34962
		},
		{
			"buffer":0,
			"byteLength":3120,
			"byteOffset":9360,
			"target":34962
		},
		{
			"buffer":0,
			"byteLength":2232,
			"byteOffset":12480,
			"target":34963
		},
		{
			"buffer":0,
			"byteLength":4680,
			"byteOffset":14712,
			"target":34962
		},
		{
			"buffer":0,
			"byteLength":4680,
			"byteOffset":19392,
			"target":34962
		},
		{
			"buffer":0,
			"byteLength":3120,
			"byteOffset":24072,
			"target":34962
		},
		{
			"buffer":0,
			"byteLength":45528,
			"byteOffset":27192,
			"target":34962
		},
		{
			"buffer":0,
			"byteLength":45528,
			"byteOffset":72720,
			"target":34962
		},
		{
			"buffer":0,
			"byteLength":30352,
			"byteOffset":118248,
			"target":34962
		},
		{
			"buffer":0,
			"byteLength":27060,
			"byteOffset":148600,
			"target":34963
		},
		{
			"buffer":0,
			"byteLength":2880,
			"byteOffset":175660,
			"target":34962
		},
		{
			"buffer":0,
			"byteLength":2880,
			"byteOffset":178540,
			"target":34962
		},
		{
			"buffer":0,
			"byteLength":1920,
			"byteOffset":181420,
			"target":34962
		},
		{
			"buffer":0,
			"byteLength":2520,
			"byteOffset":183340,
			"target":34963
		},
		{
			"buffer":0,
			"byteLength":2700,
			"byteOffset":185860,
			"target":34962
		},
		{
			"buffer":0,
			"byteLength":2700,
			"byteOffset":188560,
			"target":34962
		},
		{
			"buffer":0,
			"byteLength":1800,
			"byteOffset":191260,
			"target":34962
		},
		{
			"buffer":0,
			"byteLength":2352,
			"byteOffset":193060,
			"target":34963
		},
		{
			"buffer":0,
			"byteLength":29832,
			"byteOffset":195412,
			"target":34962
		},
		{
			"buffer":0,
			"byteLength":29832,
			"byteOffset":225244,
			"target":34962
		},
		{
			"buffer":0,
			"byteLength":19888,
			"byteOffset":255076,
			"target":34962
		},
		{
			"buffer":0,
			"byteLength":18744,
			"byteOffset":274964,
			"target":34963
		},
		{
			"buffer":0,
			"byteLength":4608,
			"byteOffset":293708,
			"target":34962
		},
		{
			"buffer":0,
			"byteLength":4608,
			"byteOffset":298316,
			"target":34962
		},
		{
			"buffer":0,
			"byteLength":3072,
			"byteOffset":302924,
			"target":34962
		},
		{
			"buffer":0,
			"byteLength":1488,
			"byteOffset":305996,
			"target":34963
		},
		{
			"buffer":0,
			"byteLength":30924,
			"byteOffset":307484,
			"target":34962
		},
		{
			"buffer":0,
			"byteLength":30924,
			"byteOffset":338408,
			"target":34962
		},
		{
			"buffer":0,
			"byteLength":20616,
			"byteOffset":369332,
			"target":34962
		},
		{
			"buffer":0,
			"byteLength":20556,
			"byteOffset":389948,
			"target":34963
		},
		{
			"buffer":0,
			"byteLength":11532,
			"byteOffset":410504,
			"target":34962
		},
		{
			"buffer":0,
			"byteLength":11532,
			"byteOffset":422036,
			"target":34962
		},
		{
			"buffer":0,
			"byteLength":7688,
			"byteOffset":433568,
			"target":34962
		},
		{
			"buffer":0,
			"byteLength":10800,
			"byteOffset":441256,
			"target":34963
		}
	],
	"samplers":[
		{
			"magFilter":9729,
			"minFilter":9987
		}
	],
	"buffers":[
		{
			"byteLength":452056,
			"uri":"info.bin"
		}
	]
}
